<svg width="40" height="40" viewBox="0 0 40 40" fill="none" xmlns="http://www.w3.org/2000/svg">
<rect width="40" height="40" rx="20" fill="#FF3E79"/>
<path fill-rule="evenodd" clip-rule="evenodd" d="M13.7936 12.2571C13.4031 11.8666 12.7699 11.8666 12.3794 12.2571L12.2572 12.3793C11.8667 12.7698 11.8667 13.403 12.2572 13.7935L18.4638 20L12.2572 26.2065C11.8667 26.5971 11.8667 27.2302 12.2572 27.6207L12.3794 27.7429C12.7699 28.1334 13.4031 28.1334 13.7936 27.7429L20.0001 21.5364L26.2067 27.7429C26.5972 28.1334 27.2303 28.1334 27.6209 27.7429L27.743 27.6207C28.1335 27.2302 28.1335 26.5971 27.743 26.2065L21.5365 20L27.743 13.7935C28.1335 13.403 28.1335 12.7698 27.743 12.3793L27.6209 12.2571C27.2303 11.8666 26.5972 11.8666 26.2067 12.2571L20.0001 18.4636L13.7936 12.2571Z" fill="white"/>
</svg>
