<svg width="8" height="11" viewBox="0 0 8 11" fill="none" xmlns="http://www.w3.org/2000/svg">
<path fill-rule="evenodd" clip-rule="evenodd" d="M6.50001 0.499954L4.00001 2.99995L1.50001 0.499954C1.22387 0.223811 0.776157 0.223811 0.500015 0.499953C0.223872 0.776096 0.223872 1.22381 0.500014 1.49995L3.29291 4.29285C3.68343 4.68337 4.3166 4.68337 4.70712 4.29285L7.50001 1.49995C7.77616 1.22381 7.77616 0.776096 7.50001 0.499953C7.22387 0.223811 6.77616 0.223811 6.50001 0.499954ZM6.50001 6.49995L4.00001 8.99995L1.50001 6.49995C1.22387 6.22381 0.776157 6.22381 0.500015 6.49995C0.223872 6.7761 0.223872 7.22381 0.500014 7.49995L3.29291 10.2928C3.68343 10.6834 4.3166 10.6834 4.70712 10.2928L7.50001 7.49995C7.77616 7.22381 7.77616 6.7761 7.50001 6.49995C7.22387 6.22381 6.77616 6.22381 6.50001 6.49995Z" fill="#41F6D7"/>
</svg>
