<svg width="98" height="52" viewBox="0 0 98 52" fill="none" xmlns="http://www.w3.org/2000/svg">
<path fill-rule="evenodd" clip-rule="evenodd" d="M36.5704 0.59259C36.0181 0.59259 35.5704 1.04031 35.5704 1.59259V5.86754C35.5704 6.41983 36.0181 6.86754 36.5704 6.86754H72.8973C83.0243 6.86754 90.9778 14.6642 90.9778 24.757V24.757C90.9778 25.0426 91.2093 25.2741 91.4948 25.2741H96.757C97.0426 25.2741 97.2741 25.0426 97.2741 24.757V24.757C97.2741 11.2677 86.4321 0.59259 72.8973 0.59259H36.5704Z" fill="#6B7B84" stroke="#80949F" stroke-width="0.5"/>
<path fill-rule="evenodd" clip-rule="evenodd" d="M7.10667 25.7123V25.7123C7.10667 25.4703 6.91044 25.274 6.66838 25.274H1.16421C0.922151 25.274 0.725922 25.4703 0.725922 25.7123V25.7123C0.725922 39.3617 10.9492 50.6312 24.1686 51.3687L66.5102 51.4065C67.0628 51.407 67.5111 50.9591 67.5111 50.4065V45.8269C67.5111 45.2746 67.0634 44.8269 66.5111 44.8269H25.6264C15.3902 44.7985 7.10667 36.2832 7.10667 25.7123Z" fill="#6B7B84" stroke="#80949F" stroke-width="0.5"/>
<path fill-rule="evenodd" clip-rule="evenodd" d="M28.1414 39.7926C30.8802 39.7926 33.1616 39.2605 35.4148 38.1657L35.5704 38.0201V30.1857L34.7272 31.2651C33.1048 33.038 30.9258 34.0139 28.4607 34.0139C23.8691 34.0139 19.2574 31.046 19.2574 25.374C19.2574 21.0876 22.438 16.5322 28.2992 16.5322C29.4687 16.5322 32.3129 16.8087 34.7231 19.3682L35.5704 20.4119V12.6129L35.4217 12.4655C33.1257 11.3149 30.7842 10.7556 28.1136 10.7556C23.5466 10.7556 19.982 11.9579 17.1437 14.4291C15.3434 15.9779 12.3407 19.4487 12.3407 25.2924C12.3407 29.6132 13.8792 32.9877 17.1668 35.9146C20.2251 38.5964 23.6162 39.7926 28.1414 39.7926" fill="#6B7B84"/>
<path d="M28.1414 39.7926C30.8802 39.7926 33.1616 39.2605 35.4148 38.1657L35.5704 38.0201V30.1857L34.7272 31.2651C33.1048 33.038 30.9258 34.0139 28.4607 34.0139C23.8691 34.0139 19.2574 31.046 19.2574 25.374C19.2574 21.0876 22.438 16.5322 28.2992 16.5322C29.4687 16.5322 32.3129 16.8087 34.7231 19.3682L35.5704 20.4119V12.6129L35.4217 12.4655C33.1257 11.3149 30.7842 10.7556 28.1136 10.7556C23.5466 10.7556 19.982 11.9579 17.1437 14.4291C15.3434 15.9779 12.3407 19.4487 12.3407 25.2924C12.3407 29.6132 13.8792 32.9877 17.1668 35.9146C20.2251 38.5964 23.6162 39.7926 28.1414 39.7926" stroke="#80949F" stroke-width="0.5"/>
<path fill-rule="evenodd" clip-rule="evenodd" d="M47.9111 17.2889H49.2754C50.5269 17.2889 51.9533 17.3572 53.0328 18.093C53.56 18.4696 54.4444 19.3413 54.4444 20.9246C54.4444 22.0947 53.9274 23.1438 53.0733 23.7984C51.9783 24.5933 50.6768 24.5477 49.6309 24.5477H47.9111V17.2889ZM50.9768 29.818C54.2082 29.818 56.7376 28.886 58.4941 27.13C60.6548 24.9737 60.9778 22.0075 60.9778 20.4437C60.9778 18.7704 60.5811 15.5068 57.921 13.1437C55.7406 11.233 53.4141 10.7556 50.1323 10.7556H41.3778V39.7926H48.0364V29.818H50.9768V29.818Z" fill="#6B7B84"/>
<path d="M47.9111 17.2889V17.0389H47.6611V17.2889H47.9111ZM53.0328 18.093L53.1782 17.8895L53.1736 17.8864L53.0328 18.093ZM53.0733 23.7984L53.2202 24.0008L53.2254 23.9968L53.0733 23.7984ZM47.9111 24.5477H47.6611V24.7977H47.9111V24.5477ZM58.4941 27.13L58.3175 26.953L58.3174 26.9532L58.4941 27.13ZM57.921 13.1437L58.0871 12.9568L58.0858 12.9557L57.921 13.1437ZM41.3778 10.7556V10.5056H41.1278V10.7556H41.3778ZM41.3778 39.7926H41.1278V40.0426H41.3778V39.7926ZM48.0364 39.7926V40.0426H48.2864V39.7926H48.0364ZM48.0364 29.818V29.568H47.7864V29.818H48.0364ZM47.9111 17.5389H49.2754V17.0389H47.9111V17.5389ZM49.2754 17.5389C50.5326 17.5389 51.8838 17.6124 52.892 18.2996L53.1736 17.8864C52.0227 17.1019 50.5212 17.0389 49.2754 17.0389V17.5389ZM52.8875 18.2965C53.3751 18.6448 54.1944 19.4496 54.1944 20.9246H54.6944C54.6944 19.233 53.7448 18.2944 53.1781 17.8896L52.8875 18.2965ZM54.1944 20.9246C54.1944 22.0206 53.7107 22.9949 52.9212 23.6L53.2254 23.9968C54.1441 23.2927 54.6944 22.1687 54.6944 20.9246H54.1944ZM52.9265 23.5961C51.9091 24.3346 50.6971 24.2977 49.6309 24.2977V24.7977C50.6564 24.7977 52.0475 24.8519 53.2202 24.0007L52.9265 23.5961ZM49.6309 24.2977H47.9111V24.7977H49.6309V24.2977ZM48.1611 24.5477V17.2889H47.6611V24.5477H48.1611ZM50.9768 30.068C54.2567 30.068 56.8562 29.1209 58.6709 27.3068L58.3174 26.9532C56.619 28.651 54.1597 29.568 50.9768 29.568V30.068ZM58.6707 27.307C60.9028 25.0795 61.2278 22.0289 61.2278 20.4437H60.7278C60.7278 21.9861 60.4069 24.868 58.3175 26.953L58.6707 27.307ZM61.2278 20.4437C61.2278 18.7424 60.8261 15.39 58.0871 12.9568L57.755 13.3306C60.3362 15.6235 60.7278 18.7985 60.7278 20.4437H61.2278ZM58.0858 12.9557C55.8398 10.9876 53.4416 10.5056 50.1323 10.5056V11.0056C53.3865 11.0056 55.6413 11.4784 57.7563 13.3317L58.0858 12.9557ZM50.1323 10.5056H41.3778V11.0056H50.1323V10.5056ZM41.1278 10.7556V39.7926H41.6278V10.7556H41.1278ZM41.3778 40.0426H48.0364V39.5426H41.3778V40.0426ZM48.2864 39.7926V29.818H47.7864V39.7926H48.2864ZM48.0364 30.068H50.9768V29.568H48.0364V30.068Z" fill="#80949F"/>
<path fill-rule="evenodd" clip-rule="evenodd" d="M80.9528 24.4688C79.5051 23.1862 77.4844 22.4427 75.1908 21.6715C73.5567 21.1028 72.6563 20.7896 72.056 20.2423C71.5822 19.8401 71.371 19.4035 71.371 18.8264C71.371 17.5624 72.2299 16.2115 74.6412 16.2115C76.2799 16.2115 77.6519 16.9122 78.7195 18.2932L79.1433 18.8416L82.6595 14.3658L82.339 14.0447C80.1884 11.8926 77.3546 10.7556 74.1437 10.7556C67.6654 10.7556 64.7656 14.9701 64.7656 19.147C64.7656 21.3884 65.5649 23.1962 67.1365 24.5176C68.5435 25.7236 70.2593 26.3993 71.9052 26.9508L72.0912 27.0125C73.5528 27.4956 75.0644 27.9956 75.9672 28.8036C76.5953 29.3807 76.8752 30.0078 76.8752 30.8369C76.8752 32.737 75.3788 34.0139 73.1518 34.0139C71.3914 34.0139 69.0733 33.151 67.8469 30.7298L67.5261 30.0955L63.1555 34.1412L63.4133 34.5058C64.8077 36.4802 67.9543 39.7926 73.3592 39.7926C79.3189 39.7926 83.4815 35.961 83.4815 30.4753C83.4815 27.3376 82.1049 25.4754 80.9528 24.4688" fill="#6B7B84"/>
<path d="M80.9528 24.4688C79.5051 23.1862 77.4844 22.4427 75.1908 21.6715C73.5567 21.1028 72.6563 20.7896 72.056 20.2423C71.5822 19.8401 71.371 19.4035 71.371 18.8264C71.371 17.5624 72.2299 16.2115 74.6412 16.2115C76.2799 16.2115 77.6519 16.9122 78.7195 18.2932L79.1433 18.8416L82.6595 14.3658L82.339 14.0447C80.1884 11.8926 77.3546 10.7556 74.1437 10.7556C67.6654 10.7556 64.7656 14.9701 64.7656 19.147C64.7656 21.3884 65.5649 23.1962 67.1365 24.5176C68.5435 25.7236 70.2593 26.3993 71.9052 26.9508L72.0912 27.0125C73.5528 27.4956 75.0644 27.9956 75.9672 28.8036C76.5953 29.3807 76.8752 30.0078 76.8752 30.8369C76.8752 32.737 75.3788 34.0139 73.1518 34.0139C71.3914 34.0139 69.0733 33.151 67.8469 30.7298L67.5261 30.0955L63.1555 34.1412L63.4133 34.5058C64.8077 36.4802 67.9543 39.7926 73.3592 39.7926C79.3189 39.7926 83.4815 35.961 83.4815 30.4753C83.4815 27.3376 82.1049 25.4754 80.9528 24.4688" stroke="#80949F" stroke-width="0.5"/>
</svg>
